<svg xmlns="http://www.w3.org/2000/svg" xmlns:xlink="http://www.w3.org/1999/xlink" viewBox="0 0 105.442 24.884" fill="#fff" fill-rule="evenodd" stroke="#000" stroke-linecap="round" stroke-linejoin="round"><use xlink:href="#A" x=".942" y=".942"/><symbol id="A" overflow="visible"><g stroke="none"><g fill-rule="nonzero"><path d="M4.577 22.52C2.912 22.516 1.38 21.6.573 20.153s-.758-3.237.125-4.65l8.247-13.2C9.814.926 11.357.107 12.994.166s3.117.986 3.884 2.433.704 3.193-.165 4.58l-8.25 13.2a4.58 4.58 0 0 1-3.887 2.15z" fill="#ff3d57"/><path d="M18.8 22.52c-1.667 0-3.202-.904-4-2.362s-.76-3.24.123-4.653l8.253-13.2A4.58 4.58 0 0 1 27.24.001c1.683.038 3.21.995 3.976 2.494s.65 3.297-.303 4.684l-8.238 13.2a4.58 4.58 0 0 1-3.887 2.15z" fill="#ffcb00"/><path d="M28.41 18.04c0-2.48 2.047-4.475 4.6-4.475s4.6 1.996 4.6 4.475-2.047 4.475-4.6 4.475-4.6-1.996-4.6-4.475z" fill="#00d647"/></g><path d="M103.748 7.306h-2.66l-1.864 4.776-1.852-4.776h-2.665l3.236 7.53-2.02 4.98h2.642zm-15.975 4.188c0 1.194 1.06 1.996 2.112 1.996 1.025 0 2.02-.737 2.02-1.996s-1.006-1.996-2.02-1.996c-1.043 0-2.112.792-2.112 1.996zm4.133 4.206v-.952c-.54.808-1.797 1.115-2.443 1.115a4.28 4.28 0 0 1-4.278-4.368 4.28 4.28 0 0 1 4.278-4.368c.54 0 1.797.18 2.443 1.115V7.3h2.48v8.393zm-7.428 0h-2.48v-1.042c-.413.773-1.42 1.222-2.463 1.222-2.158 0-4.063-1.708-4.063-4.352 0-2.694 1.906-4.404 4.063-4.404 1.042 0 2.05.432 2.463 1.194V2.73h2.48zm-2.535-4.223c0-1.258-.917-1.996-1.942-1.996-1.06 0-1.942.8-1.942 1.996 0 1.244.882 2.02 1.942 2.02 1.042 0 1.942-.827 1.942-2.02zm-12.604-.217c0-1.286.665-1.708 1.546-1.708.845 0 1.456.558 1.456 1.672V15.7h2.498v-5.014c0-2.39-1.187-3.56-3.074-3.56-.988 0-1.977.558-2.426 1.4v-1.22H66.84V15.7h2.498zm-7.572 4.592c-2.373 0-4.35-1.725-4.35-4.368s1.977-4.352 4.35-4.352 4.368 1.708 4.368 4.352-1.996 4.368-4.368 4.368zm0-2.443c1.042 0 1.906-.755 1.906-1.923a1.86 1.86 0 0 0-1.906-1.906 1.86 1.86 0 0 0-1.888 1.906 1.85 1.85 0 0 0 1.888 1.923zM52.93 9.552c.737 0 1.384.575 1.384 1.672V15.7h2.48v-4.776c0-2.535-1.243-3.81-3.235-3.81-.592 0-1.708.18-2.517 1.492-.46-.97-1.366-1.474-2.694-1.474a2.4 2.4 0 0 0-2.192 1.384v-1.22h-2.494v8.393h2.498v-4.43c0-1.286.702-1.708 1.456-1.708.72 0 1.366.557 1.384 1.616v4.53h2.498V11.26c.001-1.22.647-1.708 1.433-1.708z" fill="#333"/></g></symbol></svg>