<svg xmlns="http://www.w3.org/2000/svg" xmlns:xlink="http://www.w3.org/1999/xlink" viewBox="0 0 65 65" fill="#fff"
     fill-rule="evenodd" stroke="#000" stroke-linecap="round" stroke-linejoin="round">
  <use xlink:href="#A" x=".5" y=".5"/>
  <symbol id="A" overflow="visible">
    <g stroke-width=".79">
      <path
        d="M17.384 39.905c0-3.728 2.82-6.73 6.32-6.73s6.32 3 6.32 6.73V56.47c0 3.728-2.82 6.73-6.32 6.73s-6.32-3.002-6.32-6.73z"
        stroke="#e01e5a" fill="#e01e5a"/>
      <path
        d="M39.906 45.827c-3.728 0-6.73-2.82-6.73-6.32s3-6.32 6.73-6.32H56.47c3.728 0 6.73 2.82 6.73 6.32s-3 6.32-6.73 6.32z"
        stroke="#ecb22d" fill="#ecb22d"/>
      <path
        d="M33.186 6.73c0-3.728 2.82-6.73 6.32-6.73s6.32 3 6.32 6.73v16.575c0 3.728-2.82 6.73-6.32 6.73s-6.32-3-6.32-6.73z"
        stroke="#2fb67c" fill="#2fb67c"/>
      <path
        d="M6.73 30.025c-3.728 0-6.73-2.82-6.73-6.32s3-6.32 6.73-6.32h16.575c3.728 0 6.73 2.82 6.73 6.32s-3 6.32-6.73 6.32z"
        stroke="#36c5f1" fill="#36c5f1"/>
      <path
        d="M33.186 56.89a6.31 6.31 0 0 0 6.321 6.321 6.31 6.31 0 0 0 4.474-10.795 6.31 6.31 0 0 0-4.474-1.847h-6.32z"
        stroke="#ecb22d" fill="#ecb22d"/>
      <path
        d="M56.9 30.025h-6.32v-6.32a6.32 6.32 0 0 1 9.482-5.474 6.32 6.32 0 0 1 3.16 5.474 6.31 6.31 0 0 1-6.321 6.321z"
        stroke="#2fb67c" fill="#2fb67c"/>
      <path
        d="M6.322 33.185h6.32v6.32a6.31 6.31 0 0 1-6.321 6.321A6.31 6.31 0 0 1 0 39.505a6.31 6.31 0 0 1 6.321-6.321z"
        stroke="#e01e5a" fill="#e01e5a"/>
      <path
        d="M30.026 6.32v6.32h-6.32a6.31 6.31 0 0 1-6.321-6.321A6.31 6.31 0 0 1 23.705 0a6.31 6.31 0 0 1 6.321 6.321z"
        stroke="#36c5f1" fill="#36c5f1"/>
    </g>
  </symbol>
</svg>
